<svg xmlns="http://www.w3.org/2000/svg" width="1160" height="680" viewBox="0 0 1160 680" role="img" aria-labelledby="title desc">
  <title id="title">Korean legal review memo preview</title>
  <desc id="desc">Preview of the Korean legal review memo generated by claude-for-legal-kr.</desc>
  <defs>
    <filter id="shadow" x="-20%" y="-20%" width="140%" height="140%">
      <feDropShadow dx="0" dy="12" stdDeviation="16" flood-color="#111827" flood-opacity="0.14"/>
    </filter>
    <style>
      .page-title { font: 800 31px -apple-system, BlinkMacSystemFont, "Segoe UI", sans-serif; fill: #111827; }
      .label { font: 700 12px -apple-system, BlinkMacSystemFont, "Segoe UI", sans-serif; fill: #1d4ed8; }
      .h { font: 800 19px -apple-system, BlinkMacSystemFont, "Segoe UI", sans-serif; fill: #111827; }
      .body { font: 500 14px -apple-system, BlinkMacSystemFont, "Segoe UI", sans-serif; fill: #374151; }
      .muted { font: 500 13px -apple-system, BlinkMacSystemFont, "Segoe UI", sans-serif; fill: #6b7280; }
      .table-h { font: 700 13px -apple-system, BlinkMacSystemFont, "Segoe UI", sans-serif; fill: #1f2937; }
      .table { font: 500 13px -apple-system, BlinkMacSystemFont, "Segoe UI", sans-serif; fill: #374151; }
    </style>
  </defs>

  <rect width="1160" height="680" rx="28" fill="#f8fafc"/>
  <g filter="url(#shadow)">
    <rect x="86" y="54" width="988" height="572" rx="22" fill="#ffffff" stroke="#e5e7eb"/>
  </g>

  <rect x="86" y="54" width="988" height="84" rx="22" fill="#eff6ff"/>
  <text x="126" y="105" class="page-title">법률검토 내역서</text>
  <rect x="866" y="82" width="160" height="30" rx="15" fill="#dbeafe"/>
  <text x="895" y="102" class="label">DRAFT · LOCAL MCP</text>

  <g>
    <rect x="126" y="172" width="278" height="92" rx="14" fill="#f0fdf4" stroke="#bbf7d0"/>
    <text x="150" y="205" class="h">1. 검토 결론</text>
    <text x="150" y="232" class="body">조건부 진행 가능</text>
    <text x="150" y="252" class="muted">법령 조회와 사실관계 보완 필요</text>
  </g>

  <g>
    <rect x="441" y="172" width="278" height="92" rx="14" fill="#fff7ed" stroke="#fed7aa"/>
    <text x="465" y="205" class="h">2. 사안의 개요</text>
    <text x="465" y="232" class="body">해외 SaaS 벤더 계약 검토</text>
    <text x="465" y="252" class="muted">구독계약 · 데이터 처리 가능성</text>
  </g>

  <g>
    <rect x="756" y="172" width="278" height="92" rx="14" fill="#fef2f2" stroke="#fecaca"/>
    <text x="780" y="205" class="h">3. 질의의 취지</text>
    <text x="780" y="232" class="body">법무팀 전달 전 쟁점 정리</text>
    <text x="780" y="252" class="muted">최종 법률의견 아님</text>
  </g>

  <g>
    <text x="126" y="316" class="h">5. 관련 법령 및 확인 근거</text>
    <rect x="126" y="336" width="908" height="116" rx="14" fill="#f9fafb" stroke="#e5e7eb"/>
    <rect x="126" y="336" width="908" height="34" rx="14" fill="#eef2ff"/>
    <text x="150" y="359" class="table-h">구분</text>
    <text x="280" y="359" class="table-h">법령/자료</text>
    <text x="500" y="359" class="table-h">조문/식별자</text>
    <text x="690" y="359" class="table-h">확인상태</text>
    <text x="835" y="359" class="table-h">비고</text>
    <text x="150" y="398" class="table">법령</text>
    <text x="280" y="398" class="table">관련 한국 법령</text>
    <text x="500" y="398" class="table">미특정</text>
    <text x="690" y="398" class="table">미조회</text>
    <text x="835" y="398" class="table">source lookup 필요</text>
    <text x="150" y="431" class="table">사실관계</text>
    <text x="280" y="431" class="table">사용자 제공 내용</text>
    <text x="500" y="431" class="table">질문/문서/맥락</text>
    <text x="690" y="431" class="table">사용자 제공</text>
    <text x="835" y="431" class="table">원문 확인 필요</text>
  </g>

  <g>
    <rect x="126" y="490" width="282" height="86" rx="14" fill="#ffffff" stroke="#dbeafe"/>
    <text x="150" y="522" class="h">6. 주요 쟁점별 검토</text>
    <text x="150" y="550" class="body">적용 법령 · 사실관계 · 문서 누락</text>
  </g>

  <g>
    <rect x="439" y="490" width="282" height="86" rx="14" fill="#ffffff" stroke="#dbeafe"/>
    <text x="463" y="522" class="h">7. 필수 보완사항</text>
    <text x="463" y="550" class="body">조문 조회 · 전문 확보 · 당사자 확인</text>
  </g>

  <g>
    <rect x="752" y="490" width="282" height="86" rx="14" fill="#ffffff" stroke="#dbeafe"/>
    <text x="776" y="522" class="h">9. 법무팀/변호사에게 전달할 질문</text>
    <text x="776" y="550" class="body">무엇을 확인하고 보완해야 하는가</text>
  </g>

  <text x="126" y="612" class="muted">11. 검토 한계 및 주의문구: AI 작성 초안 · 법률자문 아님 · 외부 제출/계약 체결 전 전문가 검토 필요</text>
</svg>
